<svg width="100" height="20" viewBox="0 0 100 20" fill="none" xmlns="http://www.w3.org/2000/svg">
<path d="M10 1.66675L12.575 6.88341L18.3334 7.72508L14.1667 11.7834L15.15 17.5167L10 14.8084L4.85002 17.5167L5.83335 11.7834L1.66669 7.72508L7.42502 6.88341L10 1.66675Z" fill="#E0FB60"/>
<path d="M30 1.66675L32.575 6.88341L38.3334 7.72508L34.1667 11.7834L35.15 17.5167L30 14.8084L24.85 17.5167L25.8334 11.7834L21.6667 7.72508L27.425 6.88341L30 1.66675Z" fill="#E0FB60"/>
<path d="M50 1.66675L52.575 6.88341L58.3334 7.72508L54.1667 11.7834L55.15 17.5167L50 14.8084L44.85 17.5167L45.8334 11.7834L41.6667 7.72508L47.425 6.88341L50 1.66675Z" fill="#E0FB60"/>
<path d="M70 1.66675L72.575 6.88341L78.3333 7.72508L74.1667 11.7834L75.15 17.5167L70 14.8084L64.85 17.5167L65.8333 11.7834L61.6667 7.72508L67.425 6.88341L70 1.66675Z" fill="#E0FB60"/>
<path d="M89.9999 1.66675L92.5749 6.88341L98.3332 7.72508L94.1666 11.7834L95.1499 17.5167L89.9999 14.8084L84.8499 17.5167L85.8332 11.7834L81.6666 7.72508L87.4249 6.88341L89.9999 1.66675Z" fill="#E0FB60"/>
</svg>
