<svg width="60" height="60" viewBox="0 0 60 60" fill="none" xmlns="http://www.w3.org/2000/svg">
<path d="M51.2 30.5283C51.2 28.9585 51.0595 27.4491 50.7985 26H30V34.5635H41.8848C41.3729 37.3308 39.817 39.6755 37.4782 41.2453V46.8H44.6152C48.7909 42.9459 51.2 37.2704 51.2 30.5283Z" fill="#4285F4"/>
<path d="M29.9336 52C35.8354 52 40.7834 50.0101 44.4 46.6162L37.3357 41.0404C35.3784 42.3737 32.8746 43.1616 29.9336 43.1616C24.2405 43.1616 19.4216 39.2525 17.7028 34H10.4V39.7576C13.9968 47.0202 21.3889 52 29.9336 52Z" fill="#34A853"/>
<path d="M17.6 34.2308C17.1641 32.8947 16.9164 31.4676 16.9164 30C16.9164 28.5324 17.1641 27.1053 17.6 25.7692V20H10.3183C8.79257 23.103 7.99866 26.5276 8 30C8 33.5931 8.84211 36.9939 10.3183 40L17.6 34.2308Z" fill="#FBBC05"/>
<path d="M30.0715 16.8384C33.3033 16.8384 36.205 17.9596 38.4864 20.1616L44.8 13.7879C40.9878 10.202 36.0049 8 30.0715 8C21.4665 8 14.0221 12.9798 10.4 20.2424L17.7543 26C19.4853 20.7475 24.3381 16.8384 30.0715 16.8384Z" fill="#EA4335"/>
</svg>
